<svg xmlns="http://www.w3.org/2000/svg" viewBox="0 0 512 512" role="img" aria-labelledby="t d">
  <title id="t">우리아이 로고 시안 32 코지 포켓</title><desc id="d">아이를 포근히 담은 둥근 주머니 심볼</desc>
  <rect width="512" height="512" rx="112" fill="#FFD76A"/>
  <path d="M104 126h304v172c0 94-68 170-152 170s-152-76-152-170V126Z" fill="#FF6B4A"/>
  <path d="M104 126c42 57 93 86 152 86s110-29 152-86" fill="none" stroke="#FFF9F3" stroke-width="38"/>
  <circle cx="256" cy="268" r="76" fill="#FFF9F3"/>
  <path d="M231 202c0-29 19-49 46-49 0 26-12 44-38 55" fill="#FFD76A"/>
  <circle cx="229" cy="271" r="9" fill="#17324D"/><circle cx="283" cy="271" r="9" fill="#17324D"/>
  <path d="M233 301c13 13 33 13 46 0" fill="none" stroke="#17324D" stroke-width="13" stroke-linecap="round"/>
</svg>
